<svg width="200" height="200" viewBox="0 0 200 200" fill="none" xmlns="http://www.w3.org/2000/svg">
<circle cx="47.1698" cy="47.1698" r="47.1698" fill="#B063FF"/>
<path fill-rule="evenodd" clip-rule="evenodd" d="M85.7032 19.9571C78.0144 14.5173 68.6258 11.3208 58.4906 11.3208C32.4394 11.3208 11.3208 32.4394 11.3208 58.4906C11.3208 68.6258 14.5173 78.0144 19.9571 85.7032C7.88276 77.1607 0 63.0858 0 47.1698C0 21.1186 21.1186 0 47.1698 0C63.0858 0 77.1607 7.88276 85.7032 19.9571Z" fill="#7018C9"/>
<circle cx="152.83" cy="152.83" r="47.1698" fill="#B063FF"/>
<path fill-rule="evenodd" clip-rule="evenodd" d="M141.509 188.679C167.56 188.679 188.679 167.561 188.679 141.51C188.679 131.374 185.482 121.986 180.043 114.297C192.117 122.839 200 136.914 200 152.83C200 178.881 178.881 200 152.83 200C136.914 200 122.839 192.117 114.296 180.043C121.985 185.483 131.374 188.679 141.509 188.679Z" fill="#7018C9"/>
<path fill-rule="evenodd" clip-rule="evenodd" d="M200 47.1698C200 73.221 178.881 94.3396 152.83 94.3396C152.83 94.3396 123.666 98.6963 111.321 111.321C99.3135 123.6 94.3396 152.83 94.3396 152.83C94.3396 178.881 73.221 200 47.1698 200C21.1186 200 0 178.881 0 152.83C0 126.779 21.1186 105.66 47.1698 105.66C47.1698 105.66 76.3648 101.541 88.6792 88.6792C100.322 76.5193 105.66 47.1698 105.66 47.1698C105.66 21.1186 126.779 0 152.83 0C178.881 0 200 21.1186 200 47.1698Z" fill="#B063FF"/>
</svg>